<svg xmlns="http://www.w3.org/2000/svg" xmlns:xlink="http://www.w3.org/1999/xlink" width="886.442" height="703.718" viewBox="0 0 886.442 703.718">
  <defs>
    <linearGradient id="linear-gradient" x1="0.462" y1="-0.06" x2="0.538" y2="1.06" gradientUnits="objectBoundingBox">
      <stop offset="0" stop-color="#3d2e87"/>
      <stop offset="1" stop-color="#8c2ddf"/>
    </linearGradient>
  </defs>
  <g id="Bg" transform="translate(-811.812 -1265.14)">
    <g id="Bg-2" data-name="Bg" transform="matrix(0.989, -0.149, 0.149, 0.989, 163.096, 1389.337)">
      <path id="Caminho_29" data-name="Caminho 29" d="M1249.46,277.243a204.061,204.061,0,0,0-31.224,2.063c-36.38,5.24-72.361-12.744-89-45.541C1086.472,149.5,998.785,91.918,897.719,92.626c-142.564,1-257.869,119.212-255.581,261.874,2.253,140.355,116.642,253.441,257.423,253.441a256.508,256.508,0,0,0,97.225-19.008c33.831-13.818,72.993-4.74,96.8,23a202.01,202.01,0,0,0,153.73,70.728c112.319,0,203.285-91.491,202.551-204.07C1449.146,368.462,1359.5,278.386,1249.46,277.243Z" fill="#dee2ef"/>
    </g>
    <path id="Gradient_Overlay" data-name="Gradient Overlay" d="M1335.426,1831.721c-27.661-23.894-67.735-27.042-99.136-8.343a256.555,256.555,0,0,1-93.317,33.267c-139.214,20.953-269.132-73.852-292.216-212.314-23.46-140.738,72.994-274.8,213.822-297.006,99.835-15.742,195.1,28.149,249.907,105.116,21.331,29.956,59.583,42.385,94.78,31.788a204,204,0,0,1,30.569-6.687c108.988-15.249,211.016,60.486,228.091,169.291,17.455,111.219-58.9,215.233-169.972,231.95a201.921,201.921,0,0,1-162.527-47.062Z" fill="url(#linear-gradient)"/>
  </g>
</svg>
