<svg xmlns="http://www.w3.org/2000/svg" xmlns:xlink="http://www.w3.org/1999/xlink" width="2266.374" height="1105.664" viewBox="0 0 2266.374 1105.664"><defs><linearGradient id="a" x1="0.5" y1="1.06" x2="0.5" y2="-0.06" gradientUnits="objectBoundingBox"><stop offset="0" stop-color="#00344a"/><stop offset="0.272" stop-color="#00344a"/><stop offset="1" stop-color="#fafdfe"/></linearGradient><linearGradient id="c" x1="0.462" y1="-0.06" x2="0.538" y2="1.06" gradientUnits="objectBoundingBox"><stop offset="0" stop-color="#3d2e87"/><stop offset="1" stop-color="#8c2ddf"/></linearGradient></defs><g transform="translate(561.999 -1137.336)"><g opacity="0.071"><g transform="translate(-922.295 1204.921)"><path d="M2438.295,992.137s-674.806-237.12-1231.889-23.624C630.915,1189.064,360.3,814.691,360.3,814.691V184.078h2078Z" fill="#3d2e87"/></g><path d="M-562,2019.612V1389H1516v808.059s-674.806-237.12-1231.889-23.623C153.2,2223.6,37.987,2242.99-61.776,2243-400.573,2243.034-562,2019.612-562,2019.612Z" fill="url(#a)"/></g><g opacity="0.071"><path d="M-454.456,1941.834S243.783,1759.05,774.634,2015.6c548.393,265.027,859.512-86.324,859.512-86.324l70.229-627.833L-364.466,1137.336Z" fill="#3d2e87"/><path d="M774.635,2015.6c-530.852-256.55-1229.09-73.767-1229.09-73.767l89.99-804.5,2068.841,164.106-70.229,627.834s-164,185.289-463.86,185.258C1057.226,2114.522,924.787,2088.166,774.635,2015.6Z" fill="url(#a)"/></g><g transform="matrix(0.989, -0.149, 0.149, 0.989, 163.096, 1389.337)"><path d="M1249.46,277.243a204.061,204.061,0,0,0-31.224,2.063c-36.38,5.24-72.361-12.744-89-45.541C1086.472,149.5,998.785,91.918,897.719,92.626c-142.564,1-257.869,119.212-255.581,261.874,2.253,140.355,116.642,253.441,257.423,253.441a256.508,256.508,0,0,0,97.225-19.008c33.831-13.818,72.993-4.74,96.8,23a202.01,202.01,0,0,0,153.73,70.728c112.319,0,203.285-91.491,202.551-204.07C1449.146,368.462,1359.5,278.386,1249.46,277.243Z" fill="#dee2ef"/></g><path d="M1335.426,1831.721c-27.661-23.894-67.735-27.042-99.136-8.343a256.555,256.555,0,0,1-93.317,33.267c-139.214,20.953-269.132-73.852-292.216-212.314-23.46-140.738,72.994-274.8,213.822-297.006,99.835-15.742,195.1,28.149,249.907,105.116,21.331,29.956,59.583,42.385,94.78,31.788a204,204,0,0,1,30.569-6.687c108.988-15.249,211.016,60.486,228.091,169.291,17.455,111.219-58.9,215.233-169.972,231.95a201.921,201.921,0,0,1-162.527-47.062Z" fill="url(#c)"/></g></svg>