<svg xmlns="http://www.w3.org/2000/svg" width="30.154" height="25.975" viewBox="0 0 30.154 25.975"><g transform="translate(-963.923 -842.9)" opacity="0.8"><g transform="translate(949.264 827.586)"><path d="M36.477,15.315a8.39,8.39,0,0,0-6.741,3.349,8.39,8.39,0,0,0-6.741-3.349,8.234,8.234,0,0,0-8.336,8.129c0,6.831,15.077,17.845,15.077,17.845S44.812,30.274,44.812,23.444A8.234,8.234,0,0,0,36.477,15.315Z" fill="none"/></g><path d="M963.923,851.03a8.235,8.235,0,0,1,8.336-8.13A8.391,8.391,0,0,1,979,846.25a8.389,8.389,0,0,1,6.741-3.35,8.235,8.235,0,0,1,8.336,8.13c0,6.83-15.077,17.845-15.077,17.845S963.923,857.86,963.923,851.03Z" fill="#3c2d85"/></g></svg>